<mxfile host="Electron" modified="2023-10-18T18:28:13.990Z" agent="Mozilla/5.0 (Windows NT 10.0; Win64; x64) AppleWebKit/537.36 (KHTML, like Gecko) draw.io/22.0.2 Chrome/114.0.5735.289 Electron/25.8.4 Safari/537.36" etag="YkWEfi0nsJawasIZNYPW" version="22.0.2" type="device">
  <diagram name="page-1" id="nTteX_-L-bd6lsjCAH_5">
    <mxGraphModel dx="1036" dy="606" grid="1" gridSize="10" guides="1" tooltips="1" connect="1" arrows="1" fold="1" page="1" pageScale="1" pageWidth="827" pageHeight="1169" math="0" shadow="0">
      <root>
        <mxCell id="0" />
        <mxCell id="1" parent="0" />
        <mxCell id="yDWCO1SHKQv-f6mczWXj-18" style="edgeStyle=orthogonalEdgeStyle;rounded=0;orthogonalLoop=1;jettySize=auto;html=1;exitX=1;exitY=0.5;exitDx=0;exitDy=0;entryX=0;entryY=0.5;entryDx=0;entryDy=0;dashed=1;" parent="1" source="0EIq4OgII-BHYrVc7AHv-1" target="yDWCO1SHKQv-f6mczWXj-16" edge="1">
          <mxGeometry relative="1" as="geometry" />
        </mxCell>
        <mxCell id="yDWCO1SHKQv-f6mczWXj-24" style="edgeStyle=orthogonalEdgeStyle;rounded=0;orthogonalLoop=1;jettySize=auto;html=1;exitX=0.25;exitY=1;exitDx=0;exitDy=0;entryX=0;entryY=0.5;entryDx=0;entryDy=0;curved=1;" parent="1" source="0EIq4OgII-BHYrVc7AHv-1" target="yDWCO1SHKQv-f6mczWXj-23" edge="1">
          <mxGeometry relative="1" as="geometry" />
        </mxCell>
        <mxCell id="0EIq4OgII-BHYrVc7AHv-1" value="Module 1" style="rounded=0;whiteSpace=wrap;html=1;" parent="1" vertex="1">
          <mxGeometry x="20" y="20" width="120" height="60" as="geometry" />
        </mxCell>
        <mxCell id="z7vC7oLisWLh9jTTofFt-3" value="Feature 1" style="rounded=0;whiteSpace=wrap;html=1;" parent="1" vertex="1">
          <mxGeometry x="617" y="90" width="120" height="60" as="geometry" />
        </mxCell>
        <mxCell id="yDWCO1SHKQv-f6mczWXj-3" style="edgeStyle=orthogonalEdgeStyle;rounded=0;orthogonalLoop=1;jettySize=auto;html=1;exitX=1;exitY=0.5;exitDx=0;exitDy=0;entryX=0;entryY=0.5;entryDx=0;entryDy=0;" parent="1" source="yDWCO1SHKQv-f6mczWXj-1" target="z7vC7oLisWLh9jTTofFt-3" edge="1">
          <mxGeometry relative="1" as="geometry" />
        </mxCell>
        <mxCell id="yDWCO1SHKQv-f6mczWXj-1" value="addPreset" style="rounded=1;whiteSpace=wrap;html=1;arcSize=50;" parent="1" vertex="1">
          <mxGeometry x="500" y="100" width="90" height="40" as="geometry" />
        </mxCell>
        <mxCell id="yDWCO1SHKQv-f6mczWXj-7" style="edgeStyle=orthogonalEdgeStyle;rounded=0;orthogonalLoop=1;jettySize=auto;html=1;exitX=1;exitY=0.5;exitDx=0;exitDy=0;entryX=0;entryY=0.5;entryDx=0;entryDy=0;" parent="1" source="yDWCO1SHKQv-f6mczWXj-5" target="yDWCO1SHKQv-f6mczWXj-6" edge="1">
          <mxGeometry relative="1" as="geometry">
            <mxPoint x="617" y="190" as="targetPoint" />
          </mxGeometry>
        </mxCell>
        <mxCell id="yDWCO1SHKQv-f6mczWXj-5" value="addPreset" style="rounded=1;whiteSpace=wrap;html=1;arcSize=50;" parent="1" vertex="1">
          <mxGeometry x="500" y="170" width="90" height="40" as="geometry" />
        </mxCell>
        <mxCell id="yDWCO1SHKQv-f6mczWXj-6" value="Feature 2" style="rounded=0;whiteSpace=wrap;html=1;" parent="1" vertex="1">
          <mxGeometry x="617" y="160" width="120" height="60" as="geometry" />
        </mxCell>
        <mxCell id="yDWCO1SHKQv-f6mczWXj-19" style="edgeStyle=orthogonalEdgeStyle;rounded=0;orthogonalLoop=1;jettySize=auto;html=1;exitX=1;exitY=0.5;exitDx=0;exitDy=0;entryX=0;entryY=0.5;entryDx=0;entryDy=0;dashed=1;" parent="1" source="yDWCO1SHKQv-f6mczWXj-16" edge="1">
          <mxGeometry relative="1" as="geometry">
            <mxPoint x="411" y="50" as="targetPoint" />
          </mxGeometry>
        </mxCell>
        <mxCell id="yDWCO1SHKQv-f6mczWXj-78" style="edgeStyle=orthogonalEdgeStyle;rounded=0;orthogonalLoop=1;jettySize=auto;html=1;exitX=0.5;exitY=1;exitDx=0;exitDy=0;entryX=0;entryY=0.5;entryDx=0;entryDy=0;curved=1;" parent="1" source="yDWCO1SHKQv-f6mczWXj-16" target="yDWCO1SHKQv-f6mczWXj-76" edge="1">
          <mxGeometry relative="1" as="geometry" />
        </mxCell>
        <mxCell id="yDWCO1SHKQv-f6mczWXj-79" style="edgeStyle=orthogonalEdgeStyle;rounded=0;orthogonalLoop=1;jettySize=auto;html=1;exitX=0.25;exitY=1;exitDx=0;exitDy=0;entryX=0;entryY=0.5;entryDx=0;entryDy=0;curved=1;" parent="1" source="yDWCO1SHKQv-f6mczWXj-16" target="yDWCO1SHKQv-f6mczWXj-77" edge="1">
          <mxGeometry relative="1" as="geometry" />
        </mxCell>
        <mxCell id="yDWCO1SHKQv-f6mczWXj-16" value="Module 2" style="rounded=0;whiteSpace=wrap;html=1;" parent="1" vertex="1">
          <mxGeometry x="209" y="20" width="120" height="60" as="geometry" />
        </mxCell>
        <mxCell id="yDWCO1SHKQv-f6mczWXj-43" style="edgeStyle=orthogonalEdgeStyle;rounded=0;orthogonalLoop=1;jettySize=auto;html=1;exitX=0.5;exitY=1;exitDx=0;exitDy=0;entryX=0;entryY=0.5;entryDx=0;entryDy=0;curved=1;" parent="1" source="yDWCO1SHKQv-f6mczWXj-17" target="yDWCO1SHKQv-f6mczWXj-1" edge="1">
          <mxGeometry relative="1" as="geometry" />
        </mxCell>
        <mxCell id="yDWCO1SHKQv-f6mczWXj-44" style="edgeStyle=orthogonalEdgeStyle;rounded=0;orthogonalLoop=1;jettySize=auto;html=1;exitX=0.25;exitY=1;exitDx=0;exitDy=0;entryX=0;entryY=0.5;entryDx=0;entryDy=0;curved=1;" parent="1" source="yDWCO1SHKQv-f6mczWXj-17" target="yDWCO1SHKQv-f6mczWXj-5" edge="1">
          <mxGeometry relative="1" as="geometry" />
        </mxCell>
        <mxCell id="yDWCO1SHKQv-f6mczWXj-17" value="Module 3" style="rounded=0;whiteSpace=wrap;html=1;" parent="1" vertex="1">
          <mxGeometry x="410" y="20" width="120" height="60" as="geometry" />
        </mxCell>
        <mxCell id="yDWCO1SHKQv-f6mczWXj-23" value="Namespace" style="rounded=1;whiteSpace=wrap;html=1;arcSize=0;" parent="1" vertex="1">
          <mxGeometry x="80" y="120" width="90" height="40" as="geometry" />
        </mxCell>
        <mxCell id="yDWCO1SHKQv-f6mczWXj-76" value="Extension 1" style="rounded=1;whiteSpace=wrap;html=1;arcSize=0;" parent="1" vertex="1">
          <mxGeometry x="289" y="100" width="90" height="40" as="geometry" />
        </mxCell>
        <mxCell id="yDWCO1SHKQv-f6mczWXj-77" value="Extension 2" style="rounded=1;whiteSpace=wrap;html=1;arcSize=0;" parent="1" vertex="1">
          <mxGeometry x="289" y="160" width="90" height="40" as="geometry" />
        </mxCell>
        <mxCell id="yDWCO1SHKQv-f6mczWXj-80" value="Data models" style="shape=note;whiteSpace=wrap;html=1;backgroundOutline=1;darkOpacity=0.05;size=14;fillColor=#fff2cc;strokeColor=#d6b656;" parent="1" vertex="1">
          <mxGeometry x="40" y="150" width="100" height="30" as="geometry" />
        </mxCell>
        <mxCell id="yDWCO1SHKQv-f6mczWXj-81" value="any feature or refinement&lt;br&gt;of existing ones" style="shape=note;whiteSpace=wrap;html=1;backgroundOutline=1;darkOpacity=0.05;size=14;fillColor=#fff2cc;strokeColor=#d6b656;" parent="1" vertex="1">
          <mxGeometry x="184" y="190" width="170" height="40" as="geometry" />
        </mxCell>
        <mxCell id="yDWCO1SHKQv-f6mczWXj-83" value="interchangeable feature for a specific use case" style="shape=note;whiteSpace=wrap;html=1;backgroundOutline=1;darkOpacity=0.05;size=14;fillColor=#fff2cc;strokeColor=#d6b656;" parent="1" vertex="1">
          <mxGeometry x="671" y="40" width="119" height="60" as="geometry" />
        </mxCell>
      </root>
    </mxGraphModel>
  </diagram>
</mxfile>
